<?xml version="1.0" encoding="UTF-8"?>
<svg width="3836px" height="51px" viewBox="0 0 3836 51" version="1.1" xmlns="http://www.w3.org/2000/svg" xmlns:xlink="http://www.w3.org/1999/xlink">
    <!-- Generator: Sketch 51.2 (57519) - http://www.bohemiancoding.com/sketch -->
    <title>Group</title>
    <desc>Created with Sketch.</desc>
    <defs>
        <linearGradient x1="50%" y1="0%" x2="50%" y2="100%" id="linearGradient-1">
            <stop stop-color="#00DBFF" stop-opacity="0.385529891" offset="0%"></stop>
            <stop stop-color="#00B5FF" stop-opacity="0" offset="100%"></stop>
        </linearGradient>
    </defs>
    <g id="交换平台" stroke="none" stroke-width="1" fill="none" fill-rule="evenodd">
        <g id="Artboard" transform="translate(0.000000, -106.000000)" fill-rule="nonzero">
            <g id="Group" transform="translate(0.000000, 106.000000)">
                <path d="M0.5,1.5 L1335.5,1.5" id="Line" stroke="#4D5C89" stroke-width="2" stroke-linecap="square"></path>
                <path d="M2500.5,1.25 L3834.5,1.25" id="Line-Copy" stroke="#4D5C89" stroke-width="2" stroke-linecap="square"></path>
                <path d="M1148,2 L1193,49" id="Line-2-Copy" stroke="#4D5C89" stroke-width="2" stroke-linecap="square"></path>
                <path d="M2455,2 L2500,49" id="Line-2-Copy-5" stroke="#4D5C89" stroke-width="2" stroke-linecap="square" transform="translate(2477.500000, 25.500000) scale(-1, 1) translate(-2477.500000, -25.500000) "></path>
                <path d="M1336,2 L1381,49" id="Line-2-Copy-4" stroke="#4D5C89" stroke-width="2" stroke-linecap="square"></path>
                <path d="M2643,2 L2688,49" id="Line-2-Copy-6" stroke="#4D5C89" stroke-width="2" stroke-linecap="square" transform="translate(2665.500000, 25.500000) scale(-1, 1) translate(-2665.500000, -25.500000) "></path>
                <path d="M1192.5,49.5 L2643,49.5" id="Line-3" stroke="#4D5C89" stroke-width="2" stroke-linecap="square"></path>
                <polygon id="Rectangle-3" fill="url(#linearGradient-1)" opacity="0.5" transform="translate(1916.000000, 25.000000) scale(1, -1) translate(-1916.000000, -25.000000) " points="1191.55158 1 2643.20362 1 2686 47.6926861 1146 49"></polygon>
            </g>
        </g>
    </g>
</svg>