<?xml version="1.0" encoding="UTF-8"?>
<svg width="59px" height="1202px" viewBox="0 0 59 1202" version="1.1" xmlns="http://www.w3.org/2000/svg" xmlns:xlink="http://www.w3.org/1999/xlink">
    <!-- Generator: Sketch 51.2 (57519) - http://www.bohemiancoding.com/sketch -->
    <title>Group7</title>
    <desc>Created with Sketch.</desc>
    <defs></defs>
    <g id="交换平台" stroke="none" stroke-width="1" fill="none" fill-rule="evenodd">
        <g id="Artboard-2" transform="translate(-138.000000, -90.000000)" fill="#FFFFFF">
            <g id="Group7" transform="translate(138.000000, 90.000000)">
                <polygon id="1" points="45 198 29.6 198 29.6 142.421721 14 142.421721 14 127 45 127"></polygon>
                <path d="M32.124031,309.695172 L55,309.695172 L55,325 L3,325 L3,320.972414 L32.7286822,282.307586 C33.4005202,281.367811 34.0051653,280.428051 34.5426357,279.488276 C35.0129222,278.682755 35.4496104,277.860464 35.8527132,277.021379 C36.255816,276.182295 36.4573643,275.460693 36.4573643,274.856552 C36.4573643,272.708495 35.7015579,270.912881 34.1899225,269.469655 C32.678287,268.02643 30.9147388,267.304828 28.8992248,267.304828 C27.8914678,267.304828 26.9509088,267.506205 26.0775194,267.908966 C25.20413,268.311726 24.4147322,268.848732 23.7093023,269.52 C23.0038724,270.191268 22.4496144,270.979995 22.0465116,271.886207 C21.6434088,272.792418 21.4418605,273.782523 21.4418605,274.856552 L21.4418605,275.36 L6.12403101,275.36 L6.12403101,274.856552 C6.12403101,271.298833 6.77906322,268.110359 8.08914729,265.291034 C9.39923136,262.47171 11.1291882,260.071964 13.2790698,258.091724 C15.4289513,256.111484 17.8643275,254.601155 20.5852713,253.56069 C23.3062152,252.520225 26.0775053,252 28.8992248,252 C31.7881281,252 34.5930097,252.537006 37.3139535,253.611034 C40.0348973,254.685063 42.4702735,256.228955 44.620155,258.242759 C46.7700366,260.256562 48.4999934,262.673089 49.8100775,265.492414 C51.1201616,268.311738 51.7751938,271.433086 51.7751938,274.856552 C51.7751938,277.407369 51.32171,279.941367 50.4147287,282.458621 C49.5077474,284.975875 48.1808873,287.274932 46.4341085,289.355862 L32.124031,309.695172 Z" id="2"></path>
                <path d="M29.699187,699 C25.4498433,699 21.4495445,697.93184 17.6981707,695.795487 C13.946797,693.659134 11.0088182,690.721692 8.88414634,686.983075 L5,680.473907 L18.046748,672.763047 L21.8313008,679.272214 C22.6944488,680.674196 23.8231638,681.775736 25.2174797,682.576869 C26.6117956,683.378001 28.1056831,683.778561 29.699187,683.778561 C30.9607109,683.778561 32.1558209,683.544901 33.2845528,683.077574 C34.4132848,682.610247 35.392611,681.959337 36.222561,681.124824 C37.0525109,680.290311 37.6998622,679.32229 38.1646341,678.220733 C38.6294061,677.119176 38.8617886,675.934186 38.8617886,674.665726 C38.8617886,673.397267 38.6294061,672.195586 38.1646341,671.060649 C37.6998622,669.925711 37.0525109,668.941001 36.222561,668.106488 C35.392611,667.271975 34.4132848,666.621065 33.2845528,666.153738 C32.1558209,665.68641 30.9607109,665.45275 29.699187,665.45275 L11.0752033,665.45275 L11.0752033,628 L47.0284553,628 L47.0284553,643.221439 L26.2134146,643.221439 L26.2134146,650.231312 L29.699187,650.231312 C33.0853828,650.231312 36.255744,650.865532 39.2103659,652.133992 C42.1649877,653.402451 44.7377939,655.138212 46.9288618,657.341326 C49.1199297,659.54444 50.8461997,662.131391 52.1077236,665.102257 C53.3692475,668.073123 54,671.260914 54,674.665726 C54,678.003778 53.3692475,681.158189 52.1077236,684.129055 C50.8461997,687.099921 49.1199297,689.686872 46.9288618,691.889986 C44.7377939,694.0931 42.1649877,695.828861 39.2103659,697.09732 C36.255744,698.36578 33.0853828,699 29.699187,699 Z" id="5"></path>
                <path d="M43.6572008,1031.69655 C46.5064375,1033.97886 48.7758536,1036.79814 50.4655172,1040.15448 C52.1551809,1043.51082 53,1047.16918 53,1051.12966 C53,1054.55312 52.3539618,1057.77516 51.0618661,1060.79586 C49.7697704,1063.81657 48.0304369,1066.45125 45.8438134,1068.7 C43.6571899,1070.94875 41.0730372,1072.72758 38.0912779,1074.03655 C35.1095186,1075.34552 31.929023,1076 28.5496957,1076 C25.1703685,1076 21.9898729,1075.34552 19.0081136,1074.03655 C16.0263543,1072.72758 13.4256365,1070.94875 11.2058824,1068.7 C8.98612818,1066.45125 7.23022958,1063.81657 5.93813387,1060.79586 C4.64603816,1057.77516 4,1054.55312 4,1051.12966 C4,1047.16918 4.84481914,1043.51082 6.53448276,1040.15448 C8.22414638,1036.79814 10.4935625,1033.97886 13.3427992,1031.69655 C12.4151407,1030.15264 11.6697121,1028.54162 11.1064909,1026.86345 C10.5432697,1025.18528 10.2616633,1023.37288 10.2616633,1021.42621 C10.2616633,1018.87539 10.7420506,1016.47564 11.7028398,1014.2269 C12.6636289,1011.97815 13.9722703,1010.0315 15.6288032,1008.3869 C17.2853362,1006.74229 19.2234507,1005.43334 21.4432049,1004.46 C23.662959,1003.48666 26.0317656,1003 28.5496957,1003 C31.0676258,1003 33.4364324,1003.48666 35.6561866,1004.46 C37.8759408,1005.43334 39.7974902,1006.74229 41.4208925,1008.3869 C43.0442948,1010.0315 44.3363711,1011.97815 45.2971602,1014.2269 C46.2579494,1016.47564 46.7383367,1018.87539 46.7383367,1021.42621 C46.7383367,1025.18531 45.7113017,1028.60872 43.6572008,1031.69655 Z M28.5496957,1016.69379 C27.2244694,1016.69379 26.1146089,1017.14689 25.2200811,1018.0531 C24.3255533,1018.95931 23.8782961,1020.08367 23.8782961,1021.42621 C23.8782961,1022.76874 24.3255533,1023.8931 25.2200811,1024.79931 C26.1146089,1025.70552 27.2244694,1026.15862 28.5496957,1026.15862 C29.8749221,1026.15862 30.9847825,1025.70552 31.8793103,1024.79931 C32.7738381,1023.8931 33.2210953,1022.76874 33.2210953,1021.42621 C33.2210953,1020.08367 32.7738381,1018.95931 31.8793103,1018.0531 C30.9847825,1017.14689 29.8749221,1016.69379 28.5496957,1016.69379 Z M28.5496957,1060.3931 C29.8086608,1060.3931 30.9847816,1060.15816 32.0780933,1059.68828 C33.1714051,1059.21839 34.1321798,1058.56391 34.9604462,1057.72483 C35.7887127,1056.88574 36.4347509,1055.89564 36.8985801,1054.75448 C37.3624094,1053.61333 37.5943205,1052.40506 37.5943205,1051.12966 C37.5943205,1048.57884 36.7163712,1046.41403 34.9604462,1044.63517 C33.2045213,1042.85631 31.0676258,1041.9669 28.5496957,1041.9669 C27.2907307,1041.9669 26.0980448,1042.20184 24.9716024,1042.67172 C23.84516,1043.14161 22.8678202,1043.79609 22.0395538,1044.63517 C21.2112873,1045.47426 20.5652491,1046.44758 20.1014199,1047.55517 C19.6375906,1048.66276 19.4056795,1049.85425 19.4056795,1051.12966 C19.4056795,1052.40506 19.6375906,1053.61333 20.1014199,1054.75448 C20.5652491,1055.89564 21.2112873,1056.88574 22.0395538,1057.72483 C22.8678202,1058.56391 23.84516,1059.21839 24.9716024,1059.68828 C26.0980448,1060.15816 27.2907307,1060.3931 28.5496957,1060.3931 Z" id="8"></path>
                <path d="M45.0526316,404.636107 C47.8362712,407.039504 50.0233839,409.910185 51.6140351,413.248237 C53.2046863,416.586288 54,420.25809 54,424.263752 C54,427.668564 53.3538076,430.923116 52.0614035,434.027504 C50.7689994,437.131891 48.9795436,439.869053 46.6929825,442.239069 C44.4064213,444.609086 41.7056686,446.495056 38.5906433,447.897038 C35.475618,449.29902 32.0955348,450 28.4502924,450 C24.9376043,450 21.6403663,449.3324 18.5584795,447.997179 C15.4765928,446.661959 12.7758401,444.826058 10.4561404,442.489422 C8.13644064,440.152786 6.31384678,437.415625 4.98830409,434.277856 C3.6627614,431.140088 3,427.802086 3,424.263752 L16.9181287,424.263752 C16.9181287,425.799255 17.2163713,427.284666 17.8128655,428.720028 C18.4093597,430.15539 19.2212424,431.407141 20.248538,432.475317 C21.2758336,433.543494 22.5019422,434.394684 23.9269006,435.028914 C25.351859,435.663144 26.8596412,435.980254 28.4502924,435.980254 C30.239775,435.980254 31.8469714,435.646454 33.2719298,434.978843 C34.6968882,434.311233 35.9064278,433.426663 36.9005848,432.325106 C37.8947418,431.223549 38.6734865,429.971798 39.2368421,428.569817 C39.8001977,427.167835 40.0818713,425.732494 40.0818713,424.263752 C40.0818713,422.661487 39.7836287,421.159386 39.1871345,419.757405 C38.5906403,418.355423 37.7787576,417.120363 36.751462,416.052186 C35.7241664,414.98401 34.4980578,414.149509 33.0730994,413.54866 C31.648141,412.947811 30.1072208,412.647391 28.4502924,412.647391 L16.9181287,412.647391 L16.9181287,407.039492 L27.8538012,393.019746 L8.76608187,393.019746 L8.76608187,379 L51.0175439,379 L51.0175439,381.002821 L38.8888889,400.830748 C41.0760343,401.698641 43.1305947,402.967081 45.0526316,404.636107 Z" id="3"></path>
                <path d="M31.9716599,774.969058 C34.9473833,775.368497 37.7081519,776.283865 40.2540486,777.71519 C42.7999453,779.146514 45.0151728,780.943965 46.8997976,783.107595 C48.7844224,785.271225 50.2722618,787.751041 51.3633603,790.547117 C52.4544589,793.343193 53,796.272371 53,799.33474 C53,802.729975 52.3552696,805.925442 51.0657895,808.921238 C49.7763093,811.917033 48.0239652,814.529994 45.8087045,816.760197 C43.5934437,818.9904 40.9979906,820.754565 38.0222672,822.052743 C35.0465438,823.350921 31.8724865,824 28.5,824 C25.1275135,824 21.9534562,823.350921 18.9777328,822.052743 C16.0020094,820.754565 13.4065563,818.9904 11.1912955,816.760197 C8.97603481,814.529994 7.22369066,811.917033 5.93421053,808.921238 C4.64473039,805.925442 4,802.729975 4,799.33474 C4,797.337543 4.23144168,795.390305 4.69433198,793.492968 C5.15722229,791.59563 5.81848423,789.781537 6.67813765,788.050633 L27.4089069,753 L44.965587,753 L31.9716599,774.969058 Z M28.5,808.821378 C29.7564165,808.821378 30.9632196,808.571732 32.1204453,808.072433 C33.2776711,807.573134 34.2860956,806.907412 35.145749,806.075246 C36.0054024,805.243081 36.6831959,804.244497 37.1791498,803.079466 C37.6751037,801.914434 37.9230769,800.666205 37.9230769,799.33474 C37.9230769,798.069848 37.6751037,796.854905 37.1791498,795.689873 C36.6831959,794.524842 36.0054024,793.509615 35.145749,792.644163 C34.2860956,791.778711 33.2776711,791.096346 32.1204453,790.597046 C30.9632196,790.097747 29.7564165,789.848101 28.5,789.848101 C26.7806932,789.848101 25.2267276,790.264178 23.8380567,791.096343 C22.4493858,791.928509 21.3252405,793.043594 20.465587,794.441632 L20.3663968,794.541491 C19.5067433,796.072675 19.0769231,797.670409 19.0769231,799.33474 C19.0769231,801.997669 19.9861582,804.244482 21.8046559,806.075246 C23.6231535,807.90601 25.8549126,808.821378 28.5,808.821378 Z" id="6"></path>
                <path d="M55,1154.36104 C55,1158.60447 54.0352347,1162.48318 52.1056751,1165.99728 L52.2054795,1165.99728 L30.6477495,1202 L12.4833659,1202 L25.8571429,1179.52316 C22.7299257,1179.05903 19.8356297,1178.09765 17.1741683,1176.63896 C14.5127068,1175.18028 12.2172308,1173.32381 10.2876712,1171.06948 C8.35811168,1168.81516 6.82779431,1166.2625 5.69667319,1163.41144 C4.56555207,1160.56039 4,1157.54361 4,1154.36104 C4,1150.84694 4.66535538,1147.54838 5.99608611,1144.46526 C7.32681683,1141.38214 9.15654413,1138.69688 11.4853229,1136.4094 C13.8141017,1134.12192 16.508791,1132.31517 19.5694716,1130.9891 C22.6301523,1129.66303 25.9236614,1129 29.4500978,1129 C32.9765343,1129 36.2866773,1129.66303 39.3806262,1130.9891 C42.4745752,1132.31517 45.1858983,1134.12192 47.5146771,1136.4094 C49.8434559,1138.69688 51.6731832,1141.38214 53.0039139,1144.46526 C54.3346446,1147.54838 55,1150.84694 55,1154.36104 Z M29.4500978,1164.10763 C31.2465843,1164.10763 32.876705,1163.69324 34.3405088,1162.86444 C35.8043126,1162.03565 36.9686845,1160.92508 37.8336595,1159.5327 L37.9334638,1159.43324 C38.8649753,1157.77565 39.3307241,1156.08493 39.3307241,1154.36104 C39.3307241,1153.03496 39.0645819,1151.77521 38.5322896,1150.58174 C37.9999973,1149.38828 37.2847403,1148.34401 36.3864971,1147.44891 C35.4882538,1146.55381 34.4403191,1145.85763 33.2426614,1145.36035 C32.0450038,1144.86308 30.7808286,1144.61444 29.4500978,1144.61444 C26.7220999,1144.61444 24.4099899,1145.55925 22.5136986,1147.44891 C20.6174073,1149.33857 19.6692759,1151.64258 19.6692759,1154.36104 C19.6692759,1157.14579 20.6174073,1159.46638 22.5136986,1161.32289 C24.4099899,1163.17939 26.7220999,1164.10763 29.4500978,1164.10763 Z" id="9"></path>
                <path d="M28.9,574 L28.9,554.372355 L1,554.372355 L1,541.754584 L25.3,503 L44,503 L44,539.150917 L58,539.150917 L58,554.372355 L44,554.372355 L44,574 L28.9,574 Z M28.9,539.150917 L28.9,525.932299 L20.6,539.150917 L28.9,539.150917 Z" id="4"></path>
                <polygon id="7" points="22.8824742 949 5.60618557 949 34.4 893.2 5 893.2 5 878 54 878 54 888.6"></polygon>
                <path d="M29.4500846,74 C25.3902786,74 21.4802782,72.9764275 17.7199662,70.9292517 C13.9596541,68.8820759 10.6819091,66.0127169 7.88663283,62.3210884 C5.35757337,58.8308216 3.41089233,54.9211101 2.0465313,50.5918367 C0.682170279,46.2625634 0,41.7152166 0,36.9496599 C0,32.2512237 0.682170279,27.7206567 2.0465313,23.3578231 C3.41089233,18.9949895 5.35757337,15.1020579 7.88663283,11.6789116 C10.6819091,7.92016261 13.9596541,5.03402367 17.7199662,3.02040816 C21.4802782,1.00679265 25.3902786,0 29.4500846,0 C33.5764448,0 37.5030835,1.00679265 41.2301184,3.02040816 C44.9571534,5.03402367 48.2182601,7.92016261 51.0135364,11.6789116 C53.60915,15.1020579 55.5891077,18.9949895 56.9534687,23.3578231 C58.3178297,27.7206567 59,32.2512237 59,36.9496599 C59,41.7152166 58.3178297,46.2625634 56.9534687,50.5918367 C55.5891077,54.9211101 53.60915,58.8308216 51.0135364,62.3210884 C48.2182601,66.0127169 44.9571534,68.8820759 41.2301184,70.9292517 C37.5030835,72.9764275 33.5764448,74 29.4500846,74 Z M29.4500846,15.8068027 C28.3852175,15.8068027 27.3869195,15.9913814 26.4551607,16.3605442 C25.523402,16.7297071 24.6748487,17.1995436 23.9094755,17.770068 C23.1441022,18.3405924 22.4785702,18.9278881 21.9128596,19.5319728 C21.3471489,20.1360574 20.8646382,20.6730135 20.465313,21.1428571 C18.9345665,23.2235932 17.7698855,25.6231157 16.9712352,28.3414966 C16.1725848,31.0598775 15.7732657,33.9292366 15.7732657,36.9496599 C15.7732657,39.9700831 16.1725848,42.8562221 16.9712352,45.6081633 C17.7698855,48.3601045 18.9345665,50.7764068 20.465313,52.8571429 C20.8646382,53.3269865 21.3471489,53.8639426 21.9128596,54.4680272 C22.4785702,55.0721119 23.1441022,55.6426277 23.9094755,56.1795918 C24.6748487,56.716556 25.523402,57.1696127 26.4551607,57.5387755 C27.3869195,57.9079384 28.3852175,58.092517 29.4500846,58.092517 C30.5149517,58.092517 31.529888,57.9079384 32.4949239,57.5387755 C33.4599597,57.1696127 34.3251513,56.716556 35.0905245,56.1795918 C35.8558978,55.6426277 36.5214298,55.0721119 37.0871404,54.4680272 C37.6528511,53.8639426 38.1353618,53.3269865 38.534687,52.8571429 C40.0654335,50.7764068 41.2301145,48.3601045 42.0287648,45.6081633 C42.8274152,42.8562221 43.2267343,39.9700831 43.2267343,36.9496599 C43.2267343,33.9292366 42.8274152,31.0598775 42.0287648,28.3414966 C41.2301145,25.6231157 40.0654335,23.2235932 38.534687,21.1428571 C38.1353618,20.6730135 37.6528511,20.1360574 37.0871404,19.5319728 C36.5214298,18.9278881 35.8558978,18.3405924 35.0905245,17.770068 C34.3251513,17.1995436 33.4599597,16.7297071 32.4949239,16.3605442 C31.529888,15.9913814 30.5149517,15.8068027 29.4500846,15.8068027 Z" id="0"></path>
            </g>
        </g>
    </g>
</svg>