<?xml version="1.0" encoding="UTF-8"?>
<svg width="666px" height="56px" viewBox="0 0 666 56" version="1.1" xmlns="http://www.w3.org/2000/svg" xmlns:xlink="http://www.w3.org/1999/xlink">
    <!-- Generator: Sketch 51.2 (57519) - http://www.bohemiancoding.com/sketch -->
    <title>云南省政务数据交换平台</title>
    <desc>Created with Sketch.</desc>
    <defs></defs>
    <g id="交换平台" stroke="none" stroke-width="1" fill="none" fill-rule="evenodd">
        <g id="Artboard" transform="translate(-2731.000000, -184.000000)" fill="#FFFFFF">
            <path d="M2731,203.921875 L2784.64258,203.921875 L2784.64258,211.246094 L2748.46094,211.246094 L2740.96094,231.373047 L2773.89062,231.373047 C2774.73047,231.373047 2775.29687,231.197267 2775.58984,230.845703 C2775.88281,230.494139 2776.0293,230.132814 2776.0293,229.761719 L2776.0293,220.855469 L2784.08594,220.855469 L2784.08594,230.699219 C2784.08594,232.066413 2783.95899,233.29687 2783.70508,234.390625 C2783.45117,235.48438 2783.02149,236.358395 2782.41602,237.012695 C2781.81054,237.666995 2780.78028,238.101561 2779.3252,238.316406 C2777.87011,238.531251 2776.70313,238.638672 2775.82422,238.638672 L2731.38086,238.638672 L2731.38086,232.164062 L2739.64258,211.246094 L2731,211.246094 L2731,203.921875 Z M2731,185.523438 L2784.84766,185.523438 L2784.84766,192.876953 L2731,192.876953 L2731,185.523438 Z M2814.7,227.359375 L2800.90117,227.359375 L2800.90117,238.84375 L2793.31328,238.84375 L2793.31328,196.890625 L2814.7,196.890625 L2814.7,192.847656 L2791.99492,192.847656 L2791.99492,186.607422 L2814.7,186.607422 L2814.7,184 L2822.31719,184 L2822.31719,186.607422 L2845.22734,186.607422 L2845.22734,192.847656 L2822.31719,192.847656 L2822.31719,196.890625 L2844.26055,196.890625 L2844.26055,230.376953 C2844.26055,232.291025 2844.12383,233.775385 2843.85039,234.830078 C2843.57695,235.884771 2843.01543,236.80273 2842.16582,237.583984 C2841.31621,238.365238 2840.21758,238.755859 2838.86992,238.755859 L2827.38555,238.755859 L2827.38555,232.574219 L2834.32891,232.544922 C2835.85235,232.544922 2836.6043,231.832038 2836.58477,230.40625 L2836.52617,227.359375 L2822.31719,227.359375 L2822.31719,238.960938 L2814.7,238.960938 L2814.7,227.359375 Z M2812.88359,205.328125 L2815.6082,209.751953 L2821.76055,209.751953 L2824.48516,205.650391 L2831.95586,205.650391 L2831.95586,209.751953 L2836.52617,209.751953 L2836.52617,203.21875 L2800.90117,203.21875 L2800.90117,209.751953 L2805.76445,209.751953 L2805.76445,205.328125 L2812.88359,205.328125 Z M2800.90117,215.757812 L2800.90117,221.265625 L2814.7,221.265625 L2814.7,215.757812 L2800.90117,215.757812 Z M2822.31719,215.757812 L2822.31719,221.265625 L2836.52617,221.265625 L2836.52617,215.757812 L2822.31719,215.757812 Z M2888.35117,199.380859 L2899.65977,199.380859 L2893.94688,203.277344 L2904.87461,203.277344 L2904.81602,230.904297 C2904.79648,232.505867 2904.55723,233.916986 2904.09824,235.137695 C2903.63926,236.358405 2902.54063,237.232419 2900.80234,237.759766 C2899.06405,238.287112 2895.60706,238.550781 2890.43125,238.550781 L2856.47617,238.550781 L2856.47617,212.125 L2853.31211,212.125 L2853.31211,205.650391 L2856.47617,205.650391 L2856.50547,203.277344 L2881.70078,203.277344 L2888.35117,199.380859 Z M2896.93516,213.326172 L2896.93516,209.546875 L2864.03477,209.546875 L2864.03477,213.326172 L2896.93516,213.326172 Z M2896.93516,222.847656 L2896.93516,219.478516 L2864.03477,219.478516 L2864.03477,222.847656 L2896.93516,222.847656 Z M2896.93516,229.117188 L2864.03477,229.117188 L2864.03477,232.339844 L2893.36094,232.339844 C2894.63048,232.339844 2895.46543,232.212892 2895.86582,231.958984 C2896.26621,231.705077 2896.54453,231.416994 2896.70078,231.094727 C2896.85703,230.772459 2896.93516,230.36719 2896.93516,229.878906 L2896.93516,229.117188 Z M2875.60703,184.439453 L2883.48789,184.439453 L2883.4293,201.666016 L2875.66563,201.666016 L2875.60703,184.439453 Z M2891.92539,185.728516 L2899.95273,185.728516 L2900.50938,188.541016 C2900.80235,190.083992 2901.12461,191.031248 2901.47617,191.382812 C2901.82774,191.734377 2902.55039,191.910156 2903.64414,191.910156 L2905.69492,191.910156 L2905.69492,198.296875 L2901.35898,198.296875 C2899.34726,198.296875 2897.67247,197.999026 2896.33457,197.40332 C2894.99667,196.807614 2894.13242,195.982427 2893.7418,194.927734 C2893.35117,193.873042 2892.99961,192.359385 2892.68711,190.386719 L2891.92539,185.728516 Z M2869.65977,185.728516 L2867.72617,193.726562 C2867.31601,195.347664 2866.79356,196.656245 2866.15879,197.652344 C2865.52402,198.648442 2864.66954,199.380857 2863.59531,199.849609 C2862.52109,200.318362 2860.53869,200.552734 2857.64805,200.552734 L2853.31211,200.552734 L2853.31211,193.960938 L2855.33359,193.960938 C2856.8961,193.960938 2857.82871,193.921875 2858.13145,193.84375 C2858.43418,193.765625 2858.79062,193.550783 2859.20078,193.199219 C2859.61094,192.847654 2859.9625,192.085943 2860.25547,190.914062 L2861.54453,185.728516 L2869.65977,185.728516 Z M2939.06289,196.539062 L2940.58633,196.539062 C2940.99649,196.539062 2941.33828,196.280276 2941.61172,195.762695 C2941.88516,195.245115 2942.18789,194.322272 2942.51992,192.994141 L2944.68789,184.351562 L2952.39297,184.351562 L2951.63125,187.984375 L2967.51016,187.984375 L2967.51016,194.400391 L2949.99063,194.400391 L2949.02383,198.267578 C2948.61367,199.849617 2947.87149,201.031246 2946.79727,201.8125 C2945.72304,202.593754 2944.44376,202.984375 2942.95938,202.984375 L2939.06289,202.984375 L2939.06289,196.539062 Z M2942.63711,204.244141 L2950.63516,204.244141 L2954.23867,212.242188 L2958.54531,199.322266 L2966.10391,199.322266 L2958.98477,220.943359 L2963.20352,230.845703 C2963.51602,231.587894 2963.86269,232.11035 2964.24355,232.413086 C2964.62442,232.715822 2965.28359,232.867188 2966.22109,232.867188 L2967.94961,232.867188 L2967.94961,239.166016 L2964.40469,239.166016 C2962.27577,239.166016 2960.9086,238.995119 2960.30313,238.65332 C2959.69765,238.311522 2959.15567,237.891604 2958.67715,237.393555 C2958.19863,236.895505 2957.86172,236.392581 2957.66641,235.884766 L2954.97109,229.46875 L2952.68594,235.123047 C2952.13906,236.47071 2951.41641,237.535152 2950.51797,238.316406 C2949.61953,239.09766 2948.29142,239.488281 2946.53359,239.488281 L2940.58633,239.488281 L2940.58633,233.306641 L2944.16055,233.306641 C2945.01993,233.306641 2945.74258,232.623054 2946.32852,231.255859 L2950.31289,221.96875 L2942.63711,204.244141 Z M2925.70352,192.642578 L2914.48281,192.642578 L2914.48281,185.875 L2940.26406,185.875 L2940.26406,192.642578 L2933.08633,192.642578 L2933.08633,206.412109 L2940.02969,206.412109 L2940.02969,213.091797 L2933.08633,213.091797 L2933.08633,231.548828 L2940.23477,231.138672 L2940.23477,237.818359 L2914.45352,239.341797 L2914.45352,232.75 L2915.85977,232.632812 L2915.85977,198.355469 L2923.0082,198.355469 L2923.0082,232.310547 L2925.70352,232.076172 L2925.70352,192.642578 Z M2987.63594,223.199219 L2975.97578,223.199219 L2975.97578,216.783203 L2988.74922,216.783203 L2989.92109,211.685547 L2975.97578,211.685547 L2975.97578,205.210938 L2987.87031,205.210938 C2988.69063,205.210938 2989.44746,205.171875 2990.14082,205.09375 C2990.83418,205.015625 2992.05976,204.6543 2993.81758,204.009766 L2979.96016,197.300781 L2994.98945,197.300781 L3000.64375,200.113281 L3014.58906,192.994141 L2990.36055,192.994141 C2989.36445,194.28321 2988.46114,195.113279 2987.65059,195.484375 C2986.84004,195.855471 2985.68282,196.041016 2984.17891,196.041016 L2975.97578,196.041016 L2975.97578,189.625 L2980.83906,189.625 C2981.7961,189.625 2982.49433,189.463869 2982.93379,189.141602 C2983.37324,188.819334 2983.78828,188.22852 2984.17891,187.369141 L2985.46797,184.410156 L2993.81758,184.410156 L2992.85078,186.460938 L3028.76875,186.460938 L3028.76875,192.876953 L3008.75898,203.570312 L3010.92695,204.449219 C3011.47383,204.683595 3012.36738,204.86914 3013.60762,205.005859 C3014.84786,205.142579 3015.93671,205.210938 3016.87422,205.210938 L3028.76875,205.210938 L3028.76875,211.685547 L3014.38398,211.685547 C3011.47381,211.685547 3009.02267,211.255864 3007.03047,210.396484 L3001.49336,208.023438 L2996.63008,210.308594 C2995.43867,210.875003 2994.07149,211.333983 2992.52852,211.685547 L2998.24141,211.685547 L2997.06953,216.783203 L3028.76875,216.783203 L3028.76875,232.544922 C3028.76875,233.521489 3028.66621,234.449214 3028.46113,235.328125 C3028.25605,236.207036 3027.83125,237.061519 3027.18672,237.891602 C3026.54218,238.721684 3025.11642,239.136719 3022.90938,239.136719 L3011.3957,239.136719 L3011.3957,232.691406 L3018.39766,232.691406 C3019.15938,232.691406 3019.68672,232.544923 3019.97969,232.251953 C3020.27266,231.958983 3020.41914,231.373051 3020.41914,230.494141 L3020.41914,223.199219 L2995.86836,223.199219 L2993.5832,233.306641 C2993.30976,234.537116 2992.94356,235.557613 2992.48457,236.368164 C2992.02558,237.178715 2991.43477,237.842771 2990.71211,238.360352 C2989.98945,238.877932 2988.61251,239.136719 2986.58125,239.136719 L2975.97578,239.136719 L2975.97578,232.691406 L2983.09492,232.691406 C2984.11055,232.691406 2984.78437,232.554689 2985.11641,232.28125 C2985.44844,232.007811 2985.71211,231.451176 2985.90742,230.611328 L2987.63594,223.199219 Z M3037.17578,233.921875 L3043.24023,233.921875 C3044.31446,233.921875 3045.32031,233.589847 3046.25781,232.925781 L3040.7207,229.439453 C3039.91992,228.951169 3039.36328,228.418948 3039.05078,227.842773 C3038.73828,227.266599 3038.58203,226.431646 3038.58203,225.337891 L3038.58203,222.4375 L3037.17578,222.4375 L3037.17578,216.167969 L3038.58203,216.167969 L3038.58203,213.794922 L3044.85156,213.794922 L3044.85156,216.167969 L3056.62891,216.167969 L3056.62891,213.794922 L3062.86914,213.794922 L3062.86914,216.167969 L3064.94922,216.167969 L3064.94922,222.4375 L3062.86914,222.4375 L3062.86914,224.166016 C3062.86914,225.318365 3062.71289,226.231442 3062.40039,226.905273 C3062.08789,227.579105 3061.50196,228.27734 3060.64258,229 L3056.62891,232.369141 L3058.47461,233.365234 C3058.70899,233.501954 3059.27539,233.628906 3060.17383,233.746094 C3061.07227,233.863282 3061.6582,233.921875 3061.93164,233.921875 L3064.94922,233.921875 L3064.94922,238.931641 L3059.03125,238.931641 C3057.29296,238.931641 3055.67188,238.511723 3054.16797,237.671875 L3051.53125,236.207031 L3049.80273,237.554688 C3048.61132,238.472661 3046.92189,238.931641 3044.73438,238.931641 L3037.17578,238.931641 L3037.17578,233.921875 Z M3056.62891,222.4375 L3044.85156,222.4375 L3044.85156,223.726562 C3044.85156,224.390628 3044.9541,224.898436 3045.15918,225.25 C3045.36426,225.601564 3045.83789,225.992185 3046.58008,226.421875 L3051.23828,229.205078 L3055.01758,226.099609 C3055.58399,225.630857 3055.99414,225.196291 3056.24805,224.795898 C3056.50195,224.395506 3056.62891,223.863285 3056.62891,223.199219 L3056.62891,222.4375 Z M3037.17578,211.451172 L3037.17578,206.207031 L3038.14258,206.207031 C3038.61133,206.207031 3038.96777,206.104493 3039.21191,205.899414 C3039.45606,205.694335 3039.63672,205.269534 3039.75391,204.625 L3040.48633,200.40625 L3046.25781,200.40625 L3045.05664,207.085938 C3044.93945,207.730472 3044.73438,208.389645 3044.44141,209.063477 C3044.14844,209.737308 3043.69434,210.303709 3043.0791,210.762695 C3042.46386,211.221682 3041.24806,211.451172 3039.43164,211.451172 L3037.17578,211.451172 Z M3047.40039,184.761719 L3054.43164,184.761719 L3054.43164,191.324219 L3057.06836,191.324219 L3059.44141,185.582031 L3062.86914,185.582031 L3062.86914,191.324219 L3064.50977,191.324219 L3064.50977,197.623047 L3054.43164,197.623047 L3054.43164,212.388672 L3047.40039,212.388672 L3047.40039,197.623047 L3037.17578,197.623047 L3037.17578,191.324219 L3038.99219,191.324219 L3038.99219,185.582031 L3042.56641,185.582031 L3044.61719,191.324219 L3047.40039,191.324219 L3047.40039,184.761719 Z M3066.0918,198.0625 L3066.0918,191.734375 L3066.70703,191.734375 C3067.54688,191.734375 3068.11328,191.563478 3068.40625,191.22168 C3068.69922,190.879881 3068.89453,190.376956 3068.99219,189.712891 L3069.63672,184.761719 L3076.87305,184.761719 L3076.3457,188.072266 L3090.93555,188.072266 L3090.93555,194.429688 L3075.26172,194.429688 C3075.02734,195.250004 3074.66602,196.060543 3074.17773,196.861328 C3073.68945,197.662113 3072.35157,198.0625 3070.16406,198.0625 L3066.0918,198.0625 Z M3073.29883,201.373047 L3077.95703,213.970703 L3082.73242,198.267578 L3090.05664,198.267578 L3081.9707,223.84375 L3085.07617,230.464844 C3085.58399,231.597662 3086.07226,232.325194 3086.54102,232.647461 C3087.00977,232.969728 3087.72265,233.130859 3088.67969,233.130859 L3090.73047,233.130859 L3090.73047,238.931641 L3084.66602,238.931641 C3082.55663,238.931641 3081.11133,238.150398 3080.33008,236.587891 L3078.48438,232.925781 L3077.40039,236.060547 C3077.12695,236.822269 3076.77539,237.38867 3076.3457,237.759766 C3075.91601,238.130861 3075.27637,238.418944 3074.42676,238.624023 C3073.57714,238.829103 3072.69336,238.931641 3071.77539,238.931641 L3066.0918,238.931641 L3066.0918,233.130859 L3068.875,233.130859 C3069.69532,233.130859 3070.24707,233.013673 3070.53027,232.779297 C3070.81348,232.544921 3071.05273,232.164065 3071.24805,231.636719 L3074.38281,222.876953 L3066.0918,201.373047 L3073.29883,201.373047 Z M3064.77344,211.363281 L3062.48828,211.451172 C3060.76952,211.529297 3059.48047,211.241214 3058.62109,210.586914 C3057.76171,209.932614 3057.17578,208.726571 3056.86328,206.96875 L3055.66211,200.40625 L3061.43359,200.318359 L3062.13672,204.507812 C3062.23438,205.132816 3062.41504,205.552733 3062.67871,205.767578 C3062.94238,205.982423 3063.30859,206.089844 3063.77734,206.089844 L3064.77344,206.089844 L3064.77344,211.363281 Z M3097.93633,196.949219 L3097.93633,190.123047 L3107.66289,190.123047 L3107.66289,184.556641 L3114.66484,184.556641 L3114.66484,190.123047 L3117.59453,190.123047 L3117.59453,196.949219 L3114.66484,196.949219 L3114.66484,201.783203 L3117.36016,201.783203 L3117.36016,208.521484 L3114.66484,208.521484 L3114.66484,232.310547 C3114.66484,233.345708 3114.58672,234.239254 3114.43047,234.991211 C3114.27422,235.743168 3113.81036,236.656245 3113.03887,237.730469 C3112.26738,238.804693 3110.16291,239.341797 3106.72539,239.341797 L3102.56523,239.341797 L3102.56523,232.632812 L3105.17266,232.632812 C3106.0711,232.632812 3106.71074,232.442385 3107.0916,232.061523 C3107.47246,231.680662 3107.66289,230.884772 3107.66289,229.673828 L3107.66289,218.248047 L3105.05547,224.019531 C3104.60625,224.976567 3104.20098,225.704099 3103.83965,226.202148 C3103.47832,226.700198 3103.01446,227.081053 3102.44805,227.344727 C3101.88164,227.6084 3100.91485,227.740234 3099.54766,227.740234 L3097.37969,227.740234 L3097.37969,221.119141 L3098.46367,221.119141 C3098.95196,221.119141 3099.35234,221.001954 3099.66484,220.767578 C3099.97735,220.533202 3100.36797,219.869146 3100.83672,218.775391 L3107.66289,202.515625 L3107.66289,196.949219 L3097.93633,196.949219 Z M3117.47734,232.544922 L3118.53203,232.544922 C3119.1961,232.544922 3119.63066,232.427736 3119.83574,232.193359 C3120.04082,231.958983 3120.14336,231.197272 3120.14336,229.908203 L3120.14336,185.289062 L3151.08086,185.289062 L3151.08086,199.234375 C3151.08086,200.093754 3151.02715,200.938472 3150.91973,201.768555 C3150.8123,202.598637 3150.46563,203.404293 3149.87969,204.185547 C3149.29375,204.966801 3147.75079,205.357422 3145.25078,205.357422 L3143.87383,205.357422 L3143.87383,210.572266 L3151.31523,210.572266 L3151.31523,216.460938 L3143.87383,216.460938 L3143.87383,220.5625 L3151.08086,220.5625 L3151.08086,232.544922 C3151.08086,234.927746 3150.69512,236.583003 3149.92363,237.510742 C3149.15214,238.438481 3147.52618,238.902344 3145.0457,238.902344 L3130.45586,238.902344 L3130.45586,220.5625 L3136.37383,220.5625 L3136.37383,216.460938 L3130.25078,216.460938 L3130.25078,210.572266 L3136.37383,210.572266 L3136.37383,205.357422 L3127.78984,205.357422 L3127.78984,232.544922 C3127.78984,234.205086 3127.72637,235.357419 3127.59941,236.001953 C3127.47246,236.646488 3127.15996,237.237302 3126.66191,237.774414 C3126.16386,238.311526 3125.49004,238.633789 3124.64043,238.741211 C3123.79082,238.848633 3122.87774,238.902344 3121.90117,238.902344 L3117.47734,238.902344 L3117.47734,232.544922 Z M3143.43438,191.529297 L3127.78984,191.529297 L3127.78984,199.117188 L3141.64727,199.117188 C3142.31133,199.117188 3142.77519,199.009767 3143.03887,198.794922 C3143.30254,198.580077 3143.43438,198.160159 3143.43438,197.535156 L3143.43438,191.529297 Z M3144.1082,226.509766 L3137.48711,226.509766 L3137.48711,233.072266 L3142.2332,233.072266 C3142.95586,233.072266 3143.44902,232.930665 3143.7127,232.647461 C3143.97637,232.364256 3144.1082,231.841801 3144.1082,231.080078 L3144.1082,226.509766 Z M3180.75742,187.369141 L3181.54844,184.556641 L3190.3082,184.556641 L3191.18711,187.369141 L3212.39805,187.369141 L3212.39805,194.107422 L3159.51719,194.107422 L3159.51719,187.369141 L3180.75742,187.369141 Z M3159.51719,208.873047 L3159.51719,202.193359 L3167.36875,202.193359 C3168.8336,202.193359 3169.78574,202.056642 3170.2252,201.783203 C3170.66465,201.509764 3171.07969,200.884771 3171.47031,199.908203 L3172.67148,196.802734 L3181.46055,196.802734 L3178.73594,204.244141 C3178.36484,205.220708 3177.73008,206.236323 3176.83164,207.291016 C3175.9332,208.345708 3174.18517,208.873047 3171.5875,208.873047 L3159.51719,208.873047 Z M3175.48398,211.597656 L3186.64609,218.951172 L3197.57383,211.041016 L3209.84922,211.041016 L3193.88242,224.253906 L3200.59141,229.46875 C3201.54844,230.210941 3202.70077,230.821287 3204.04844,231.299805 C3205.3961,231.778323 3206.73398,232.017578 3208.06211,232.017578 L3212.77891,232.017578 L3212.77891,238.814453 L3205.04453,238.814453 C3201.11873,238.814453 3197.93517,237.955087 3195.49375,236.236328 L3186.41172,229.878906 L3178.85313,235.914062 C3177.01718,237.378914 3175.37169,238.23828 3173.9166,238.492188 C3172.46152,238.746095 3171.00157,238.863281 3169.53672,238.84375 L3159.51719,238.814453 L3159.51719,232.164062 L3166.43125,232.164062 C3167.70079,232.164062 3168.48203,232.139649 3168.775,232.09082 C3169.06797,232.041992 3169.58554,231.871095 3170.32773,231.578125 C3171.06993,231.285155 3171.60703,231.001954 3171.93906,230.728516 L3179.49766,224.693359 L3162.32969,211.539062 L3175.48398,211.597656 Z M3191.01133,196.802734 L3200.47422,196.802734 L3201.5875,199.820312 C3201.86094,200.601566 3202.18808,201.153319 3202.56895,201.475586 C3202.94981,201.797853 3203.38926,201.983398 3203.88731,202.032227 C3204.38535,202.081055 3205.32773,202.105469 3206.71445,202.105469 L3212.77891,202.105469 L3212.77891,208.873047 L3201.88047,208.873047 C3200.61093,208.873047 3199.47813,208.731447 3198.48203,208.448242 C3197.48593,208.165038 3196.45079,207.486333 3195.37656,206.412109 C3194.30234,205.337885 3193.51133,204.03907 3193.00352,202.515625 L3191.01133,196.802734 Z M3219.92617,195.689453 L3219.92617,189.361328 L3228.24648,189.361328 L3228.24648,184.703125 L3235.30703,184.703125 L3235.30703,189.361328 L3238.29531,189.361328 L3238.29531,195.689453 L3235.30703,195.689453 L3235.30703,200.669922 L3237.91445,200.669922 L3237.91445,206.880859 L3235.30703,206.880859 L3235.30703,232.984375 C3235.30703,235.015635 3234.90176,236.548823 3234.09121,237.583984 C3233.28066,238.619146 3231.75236,239.136719 3229.50625,239.136719 L3222.4457,239.136719 L3222.4457,232.867188 L3225.19961,232.867188 C3226.5668,232.867188 3227.38711,232.769532 3227.66055,232.574219 C3227.93399,232.378905 3228.1,232.076174 3228.15859,231.666016 C3228.21719,231.255857 3228.24648,230.074229 3228.24648,228.121094 L3228.24648,221.207031 L3227.36758,223.873047 C3226.58632,226.197277 3225.07267,227.359375 3222.82656,227.359375 L3220.10195,227.359375 L3220.10195,220.943359 L3220.98086,220.943359 C3221.46914,220.943359 3221.93789,220.298835 3222.38711,219.009766 L3224.11563,214.556641 L3228.24648,201.255859 L3228.24648,195.689453 L3219.92617,195.689453 Z M3251.47891,223.462891 L3238.58828,223.462891 L3238.58828,217.017578 L3240.02383,217.017578 L3240.02383,198.326172 L3260.38516,198.326172 L3264.16445,192.994141 L3249.92617,192.994141 C3249.08632,193.912114 3248.20743,194.71777 3247.28945,195.411133 C3246.37148,196.104496 3245.17032,196.451172 3243.68594,196.451172 L3239.70156,196.451172 L3239.70156,190.503906 L3241.225,190.503906 C3241.94766,190.503906 3242.6166,190.254885 3243.23184,189.756836 C3243.84707,189.258787 3244.62343,188.238289 3245.56094,186.695312 L3246.85,184.527344 L3253.99844,184.527344 L3252.91445,186.958984 L3272.36758,186.958984 L3272.36758,192.994141 L3268.82266,198.326172 L3272.1625,198.326172 L3272.1918,217.017578 L3273.51016,217.017578 L3273.51016,223.462891 L3260.32656,223.462891 L3264.6918,230.40625 C3265.29727,231.382817 3266.26406,232.081053 3267.59219,232.500977 C3268.92032,232.920901 3270.29726,233.130859 3271.72305,233.130859 L3273.45156,233.130859 L3273.45156,239.166016 L3267.4457,239.166016 C3265.96132,239.166016 3264.5795,238.956057 3263.3002,238.536133 C3262.02089,238.116209 3260.91251,237.173835 3259.975,235.708984 L3256.28359,229.996094 L3253.11953,235.210938 C3252.49453,236.246099 3251.86465,237.037107 3251.22988,237.583984 C3250.59511,238.130862 3249.80411,238.531249 3248.85684,238.785156 C3247.90957,239.039064 3246.55704,239.166016 3244.79922,239.166016 L3238.91055,239.166016 L3238.91055,233.130859 L3243.21719,233.130859 C3244.25235,233.130859 3245.01406,233.028321 3245.50234,232.823242 C3245.99063,232.618163 3246.51797,232.24219 3247.08438,231.695312 C3247.65078,231.148435 3248.05117,230.640627 3248.28555,230.171875 L3251.47891,223.462891 Z M3247.17227,204.361328 L3247.23086,217.017578 L3252.35781,217.017578 L3252.38711,204.361328 L3247.17227,204.361328 Z M3259.44766,217.017578 L3264.89688,217.017578 L3264.89688,204.361328 L3259.41836,204.361328 L3259.44766,217.017578 Z M3325.36445,195.572266 L3333.91914,195.572266 L3331.86836,212.886719 C3331.47773,216.08986 3330.77461,218.428704 3329.75898,219.90332 C3328.74335,221.377937 3326.80978,222.125 3323.9582,222.144531 L3315.75508,222.203125 L3315.75508,214.966797 L3319.85664,214.966797 C3321.08712,214.966797 3321.9123,214.693362 3322.33223,214.146484 C3322.75215,213.599607 3323.05,212.681647 3323.22578,211.392578 L3325.36445,195.572266 Z M3292.0832,195.572266 L3294.22188,211.392578 C3294.37813,212.681647 3294.66621,213.599607 3295.08613,214.146484 C3295.50606,214.693362 3296.34101,214.966797 3297.59102,214.966797 L3302.01484,214.966797 L3302.01484,222.203125 L3293.48945,222.144531 C3290.61835,222.125 3288.67501,221.38282 3287.65938,219.917969 C3286.64375,218.453118 3285.95039,216.109391 3285.5793,212.886719 L3283.49922,195.572266 L3292.0832,195.572266 Z M3313.14766,225.220703 L3335.35469,225.220703 L3335.35469,232.222656 L3313.14766,232.222656 L3313.14766,239.166016 L3304.21211,239.136719 L3304.21211,232.222656 L3282.23945,232.222656 L3282.23945,225.220703 L3304.21211,225.220703 L3304.21211,192.320312 L3282.7668,192.320312 L3282.7668,185.318359 L3334.71016,185.318359 L3334.71016,192.320312 L3313.14766,192.320312 L3313.14766,225.220703 Z M3363.6543,184.087891 L3353.66406,199.615234 L3386.71094,199.615234 C3387.4336,199.615234 3387.92676,199.468751 3388.19043,199.175781 C3388.4541,198.882811 3388.58594,198.335942 3388.58594,197.535156 L3388.58594,190.328125 L3396.55469,190.328125 L3396.55469,200.318359 C3396.55469,201.451178 3396.50586,202.403316 3396.4082,203.174805 C3396.31055,203.946293 3395.94434,204.742183 3395.30957,205.5625 C3394.6748,206.382817 3393.38087,206.792969 3391.42773,206.792969 L3343.61523,206.792969 L3343.61523,199.615234 L3353.66406,184.087891 L3363.6543,184.087891 Z M3343.61523,210.220703 L3395.99805,210.220703 L3395.99805,230.699219 C3395.99805,231.968756 3395.87598,233.082026 3395.63184,234.039062 C3395.38769,234.996099 3394.9336,235.845699 3394.26953,236.587891 C3393.60547,237.330082 3392.75587,237.837889 3391.7207,238.111328 C3390.68554,238.384767 3389.44532,238.521484 3388,238.521484 L3343.61523,238.521484 L3343.61523,210.220703 Z M3388,217.222656 L3351.75977,217.222656 L3351.75977,231.255859 L3385.24609,231.255859 C3386.45704,231.255859 3387.21875,231.143556 3387.53125,230.918945 C3387.84375,230.694335 3388,230.240238 3388,229.556641 L3388,217.222656 Z" id="云南省政务数据交换平台"></path>
        </g>
    </g>
</svg>